<?xml version="1.0" standalone="no"?>
<!DOCTYPE svg PUBLIC "-//W3C//DTD SVG 20010904//EN"
 "http://www.w3.org/TR/2001/REC-SVG-20010904/DTD/svg10.dtd">
<svg version="1.0" xmlns="http://www.w3.org/2000/svg"
 width="512.000000pt" height="511.000000pt" viewBox="0 0 512.000000 511.000000"
 preserveAspectRatio="xMidYMid meet">

<g transform="translate(0.000000,511.000000) scale(0.100000,-0.100000)"
fill="#000000" stroke="none">
<path d="M765 5067 c-75 -43 -108 -152 -69 -230 9 -18 202 -219 430 -447 228
-229 414 -421 414 -428 0 -6 -13 -26 -30 -44 l-29 -33 -453 453 c-401 400
-457 452 -484 452 -39 0 -74 -36 -74 -76 0 -25 62 -91 452 -481 l452 -452 -29
-31 -29 -31 -451 450 c-247 247 -460 452 -471 455 -44 13 -94 -31 -94 -82 0
-9 205 -222 455 -472 l455 -456 -28 -27 c-15 -15 -37 -27 -48 -27 -12 0 -171
152 -434 415 -446 446 -455 454 -541 442 -57 -8 -113 -48 -138 -99 -25 -53
-26 -100 -3 -150 15 -32 768 -937 892 -1072 63 -69 172 -137 271 -171 80 -27
96 -29 334 -36 356 -11 371 -16 584 -242 50 -53 69 -67 93 -67 36 0 78 40 78
74 0 49 -207 264 -300 311 -125 63 -145 67 -420 75 -217 6 -263 11 -310 28
-75 26 -127 54 -172 90 -56 44 -908 1061 -908 1083 0 11 7 19 18 19 9 0 194
-177 417 -401 220 -220 419 -412 442 -425 55 -33 132 -35 188 -6 56 29 430
407 450 454 18 44 19 88 4 143 -9 34 -75 105 -431 462 -409 409 -447 453 -395
453 15 0 1047 -865 1076 -902 40 -51 85 -136 103 -198 16 -53 21 -112 27 -315
8 -271 15 -307 77 -413 57 -98 255 -282 303 -282 36 0 71 37 71 77 0 25 -13
43 -67 94 -148 140 -179 180 -211 274 -10 27 -17 120 -22 290 -6 218 -10 259
-30 320 -30 95 -84 197 -136 254 -50 56 -1061 908 -1107 934 -45 24 -122 22
-172 -6z"/>
<path d="M4570 5025 c-8 -2 -49 -9 -90 -15 -198 -33 -420 -129 -587 -255 -111
-83 -457 -391 -496 -441 -48 -60 -120 -210 -139 -284 -9 -40 -12 -102 -8 -225
9 -318 6 -374 -19 -438 -13 -32 -44 -84 -71 -115 -26 -31 -578 -602 -1226
-1268 -649 -666 -1209 -1243 -1246 -1282 -80 -85 -103 -127 -118 -213 -31
-176 71 -370 233 -444 141 -65 318 -45 422 46 21 19 541 657 1155 1419 615
763 1143 1409 1173 1437 100 90 151 106 417 123 212 14 282 29 398 86 135 65
211 145 384 399 74 110 158 240 186 289 137 238 202 541 174 814 -14 138 -30
189 -77 251 -76 97 -141 121 -319 120 -72 -1 -138 -3 -146 -4z m290 -167 c66
-34 88 -84 99 -230 22 -267 -43 -535 -183 -758 -96 -154 -282 -419 -325 -464
-85 -90 -208 -154 -326 -170 -22 -3 -119 -11 -215 -17 -257 -16 -371 -59 -492
-185 -25 -27 -548 -672 -1162 -1434 -1009 -1252 -1121 -1388 -1167 -1412 -123
-67 -283 -12 -343 117 -30 62 -35 154 -12 208 8 20 473 506 1151 1203 626 643
1202 1234 1279 1314 108 111 150 162 178 216 66 125 71 164 63 449 -6 218 -5
258 10 315 19 74 62 159 107 214 29 35 274 255 406 364 225 186 503 288 792
291 81 1 103 -3 140 -21z"/>
<path d="M3212 2210 c-32 -30 -30 -84 6 -119 15 -14 399 -365 853 -778 664
-604 829 -760 845 -794 26 -58 24 -140 -5 -204 -43 -95 -112 -144 -218 -153
-124 -10 -73 -58 -855 801 -876 963 -823 907 -864 907 -40 0 -74 -32 -74 -71
0 -15 12 -42 27 -61 58 -69 1457 -1604 1492 -1636 111 -102 287 -123 436 -53
230 107 308 419 153 608 -32 38 -1263 1167 -1676 1536 -48 42 -86 48 -120 17z"/>
</g>
</svg>
